<svg width="12" height="12" viewBox="0 0 12 12" fill="none" xmlns="http://www.w3.org/2000/svg">
<path fill-rule="evenodd" clip-rule="evenodd" d="M6 0.843437C3.11671 0.843437 0.828402 3.05947 0.828402 5.73354C0.828402 6.71559 1.13427 7.63072 1.66368 8.39897L1.7775 8.56415L1.05553 11.1134L3.60753 10.0732L3.76745 10.1457C4.44225 10.4517 5.19905 10.6236 6 10.6236C8.88329 10.6236 11.1716 8.40761 11.1716 5.73354C11.1716 3.05947 8.88329 0.843437 6 0.843437ZM0.943137 11.1593C0.943172 11.1592 0.943207 11.1592 0.943243 11.1592L0.943137 11.1593ZM0 5.73354C0 2.54034 2.71338 0 6 0C9.28662 0 12 2.54034 12 5.73354C12 8.92675 9.28662 11.4671 6 11.4671C5.14547 11.4671 4.33125 11.2962 3.59368 10.9874L1.25103 11.9423C0.656607 12.1846 0.048615 11.6246 0.226012 10.9982L0.873 8.71369C0.320006 7.84652 0 6.82602 0 5.73354Z" fill="#9A9A9A"/>
</svg>
