<svg width="8" height="13" viewBox="0 0 8 13" fill="none" xmlns="http://www.w3.org/2000/svg">
<path fill-rule="evenodd" clip-rule="evenodd" d="M7.55053 6.95877C7.24647 7.24006 6.75349 7.24006 6.44943 6.95877L0.55869 1.50925C0.254632 1.22796 0.254632 0.771907 0.55869 0.490623C0.862749 0.209338 1.35573 0.209338 1.65978 0.490623L7.55053 5.94015C7.85459 6.22144 7.85459 6.67749 7.55053 6.95877Z" fill="#6A6A6A"/>
<path fill-rule="evenodd" clip-rule="evenodd" d="M7.44127 6.04123C7.13722 5.75994 6.64424 5.75994 6.34018 6.04123L0.449438 11.4908C0.145379 11.772 0.145379 12.2281 0.449438 12.5094C0.753496 12.7907 1.24647 12.7907 1.55053 12.5094L7.44127 7.05985C7.74533 6.77856 7.74533 6.32251 7.44127 6.04123Z" fill="#6A6A6A"/>
</svg>
