<svg width="28" height="23" viewBox="0 0 28 23" fill="none" xmlns="http://www.w3.org/2000/svg">
<path d="M15.8977 14.4542L15.8928 14.458C15.3698 14.8829 14.7174 15.1147 14.0446 15.1147C13.3718 15.1147 12.7194 14.8829 12.1963 14.458L12.1898 14.4528L0 4.36866V20.6884C0 21.3015 0.242539 21.8895 0.67426 22.323C1.10598 22.7565 1.69152 23 2.30207 23H25.6979C26.3085 23 26.894 22.7565 27.3257 22.323C27.7575 21.8895 28 21.3015 28 20.6884V4.354L15.8977 14.4542Z" fill="#6A6A6A"/>
<path d="M13.3648 13.0137C13.5579 13.1681 13.7975 13.2522 14.0444 13.2522C14.2913 13.2522 14.5309 13.1681 14.724 13.0137L27.9734 1.95744C27.8891 1.41224 27.6135 0.915278 27.1962 0.556306C26.779 0.197334 26.2477 1.91688e-05 25.6982 6.7371e-08H2.30235C1.74924 -0.000133943 1.21458 0.199661 0.796119 0.562848C0.377662 0.926034 0.103382 1.42834 0.0234375 1.97791L13.3648 13.0137Z" fill="#6A6A6A"/>
</svg>
