<svg xmlns="http://www.w3.org/2000/svg" xmlns:xlink="http://www.w3.org/1999/xlink" width="50" height="50" viewBox="0 0 50 50"><defs><clipPath id="a"><rect width="50" height="50" rx="25" transform="translate(578 1116)" fill="#f5bf3a"/></clipPath></defs><g transform="translate(-578 -1089)"><rect width="50" height="50" rx="25" transform="translate(578 1089)" fill="#ffce54"/><g transform="translate(0 -27)" clip-path="url(#a)"><g transform="translate(586 1124.283)"><g transform="translate(4.415 29.274)"><g transform="translate(4.978 10.274)"><g transform="translate(0.27 0.27)"><path d="M898.551-202.033v5.038l.579-.049a2.215,2.215,0,0,0-2.456,2.413c.112,1.162,1.056,1.143,1.679,1.143h3.206c2.134,0,1.875-1.521,1.875-1.521v-7.025" transform="translate(-896.663 202.033)" fill="#f5bf3a"/></g><path d="M897.065-194.448c-.629,0-1.758-.019-1.891-1.387a2.437,2.437,0,0,1,.6-1.874,2.5,2.5,0,0,1,1.273-.737v-4.818a.269.269,0,0,1,.27-.27.269.269,0,0,1,.269.27v4.732q.148-.012.309-.012a.27.27,0,0,1,.269.258.27.27,0,0,1-.247.28l-.577.048a2.027,2.027,0,0,0-1.168.611,1.9,1.9,0,0,0-.466,1.459c.081.834.621.9,1.375.9h3.241a1.76,1.76,0,0,0,1.393-.459,1.02,1.02,0,0,0,.217-.747.274.274,0,0,1,0-.045v-7.025a.269.269,0,0,1,.269-.27.269.269,0,0,1,.27.27v7.007a1.56,1.56,0,0,1-.34,1.158,2.251,2.251,0,0,1-1.8.651h-3.262Z" transform="translate(-895.162 203.533)" fill="#080304"/></g><g transform="translate(13.458 10.274)"><g transform="translate(0.269 0.27)"><path d="M948.748-202.033v5.038l-.578-.049a2.214,2.214,0,0,1,2.456,2.413c-.112,1.162-1.056,1.143-1.677,1.143h-3.207c-2.134,0-1.874-1.521-1.874-1.521v-7.025" transform="translate(-943.857 202.033)" fill="#f5bf3a"/></g><path d="M947.775-194.448h-3.262a2.25,2.25,0,0,1-1.8-.651,1.559,1.559,0,0,1-.339-1.158v-7.007a.269.269,0,0,1,.27-.27.269.269,0,0,1,.269.27v7.025a.275.275,0,0,1,0,.045,1.025,1.025,0,0,0,.22.752,1.766,1.766,0,0,0,1.388.454h3.241c.754,0,1.294-.066,1.374-.9a1.9,1.9,0,0,0-.465-1.459,2.025,2.025,0,0,0-1.168-.611l-.577-.048a.27.27,0,0,1-.247-.28.27.27,0,0,1,.269-.258c.107,0,.21,0,.309.012v-4.732a.269.269,0,0,1,.27-.27.269.269,0,0,1,.269.27v4.818a2.5,2.5,0,0,1,1.274.738,2.435,2.435,0,0,1,.6,1.873C949.533-194.467,948.4-194.448,947.775-194.448Z" transform="translate(-942.36 203.533)" fill="#080304"/></g><g transform="translate(0.271 0.269)"><path d="M873.358-259.217a11.051,11.051,0,0,0-4.306,7.166c-.506,3.867,1.221,5.756,2.9,5.922a2.184,2.184,0,0,0,2.543-1.506" transform="translate(-868.962 259.217)" fill="#fff"/></g><path d="M871.085-247.072c-.125,0-.256-.006-.394-.02a3.174,3.174,0,0,1-2.159-1.241c-.641-.807-1.332-2.326-.984-4.983a11.214,11.214,0,0,1,4.422-7.354.269.269,0,0,1,.374.071.269.269,0,0,1-.071.374,10.867,10.867,0,0,0-4.19,6.978,6.113,6.113,0,0,0,.871,4.578,2.641,2.641,0,0,0,1.79,1.04A1.9,1.9,0,0,0,873-248.943a.27.27,0,0,1,.335-.182.27.27,0,0,1,.182.335A2.383,2.383,0,0,1,871.085-247.072Z" transform="translate(-867.455 260.717)" fill="#080304"/><g transform="translate(2.981 11.778)"><g transform="translate(0.27 0.27)"><path d="M885.545-193.665a2.141,2.141,0,0,0,1.285,1.175" transform="translate(-885.545 193.665)" fill="#fff"/></g><path d="M885.6-193.452a.268.268,0,0,1-.069-.009,2.4,2.4,0,0,1-1.466-1.334.27.27,0,0,1,.148-.351.27.27,0,0,1,.351.147,1.882,1.882,0,0,0,1.1,1.017.269.269,0,0,1,.192.329A.269.269,0,0,1,885.6-193.452Z" transform="translate(-884.045 195.166)" fill="#080304"/></g><g transform="translate(19.679 0)"><g transform="translate(0.27 0.269)"><path d="M979.62-259.217a11.049,11.049,0,0,1,4.306,7.166c.506,3.867-1.219,5.756-2.9,5.922a2.185,2.185,0,0,1-2.544-1.506" transform="translate(-978.481 259.217)" fill="#fff"/></g><path d="M979.427-247.071a2.384,2.384,0,0,1-2.435-1.718.27.27,0,0,1,.182-.335.27.27,0,0,1,.335.182,1.906,1.906,0,0,0,2.259,1.315,2.64,2.64,0,0,0,1.789-1.039,6.115,6.115,0,0,0,.871-4.579,10.837,10.837,0,0,0-4.19-6.978.27.27,0,0,1-.071-.374.27.27,0,0,1,.375-.071,11.213,11.213,0,0,1,4.421,7.354c.348,2.658-.343,4.177-.983,4.984a3.174,3.174,0,0,1-2.158,1.241Q979.614-247.071,979.427-247.071Z" transform="translate(-976.98 260.716)" fill="#080304"/><g transform="translate(1.27 11.778)"><g transform="translate(0.269 0.27)"><path d="M986.835-193.665a2.141,2.141,0,0,1-1.286,1.175" transform="translate(-985.549 193.665)" fill="#fff"/></g><path d="M984.319-193.451a.27.27,0,0,1-.26-.2.27.27,0,0,1,.192-.329,1.864,1.864,0,0,0,1.1-1.016.27.27,0,0,1,.351-.148.27.27,0,0,1,.148.351,2.4,2.4,0,0,1-1.467,1.334A.268.268,0,0,1,984.319-193.451Z" transform="translate(-984.049 195.165)" fill="#080304"/></g></g><g transform="translate(3.323 0.805)"><g transform="translate(0 0.346)"><g transform="translate(0.27 0.27)"><path d="M904.658-252.814a10.488,10.488,0,0,1,1.362,5.69c0,3.745-3.095,6.68-9.284,6.68s-9.285-2.935-9.285-6.68a10.487,10.487,0,0,1,1.362-5.69" transform="translate(-887.45 252.814)" fill="#fff"/></g><path d="M895.5-241.406c-7.045,0-9.555-3.59-9.555-6.95a10.674,10.674,0,0,1,1.411-5.845.269.269,0,0,1,.375-.066.269.269,0,0,1,.066.375,10.374,10.374,0,0,0-1.313,5.536c0,3.954,3.455,6.411,9.016,6.411s9.015-2.456,9.015-6.411a10.379,10.379,0,0,0-1.313-5.536.27.27,0,0,1,.067-.375.269.269,0,0,1,.375.066,10.676,10.676,0,0,1,1.411,5.845C905.059-245,902.549-241.406,895.5-241.406Z" transform="translate(-885.95 254.315)" fill="#080304"/></g><g transform="translate(1.098)"><g transform="translate(5.984 1.243)"><g transform="translate(0.27 0.27)"><path d="M928.815-247.822a4.848,4.848,0,0,1-1.131,4.766,3.293,3.293,0,0,1-.789-2.528A3.5,3.5,0,0,1,928.815-247.822Z" transform="translate(-926.864 247.822)" fill="#4784b3"/></g><path d="M926.452-244.017a.269.269,0,0,1-.2-.085,3.542,3.542,0,0,1-.859-2.752,3.735,3.735,0,0,1,2.074-2.444.27.27,0,0,1,.21-.006.27.27,0,0,1,.151.147,5.079,5.079,0,0,1-1.171,5.041.269.269,0,0,1-.2.1Zm.97-4.641a2.964,2.964,0,0,0-1.492,1.883,2.941,2.941,0,0,0,.524,2.049A4.72,4.72,0,0,0,927.422-248.658Z" transform="translate(-925.362 249.322)" fill="#080304"/><g transform="translate(2.224)"><g transform="translate(0.274 0.27)"><path d="M939.48-247.822a4.848,4.848,0,0,0,1.131,4.766,3.29,3.29,0,0,0,.789-2.528A3.5,3.5,0,0,0,939.48-247.822Z" transform="translate(-939.267 247.822)" fill="#4784b3"/></g><path d="M939.361-244.017h-.009a.27.27,0,0,1-.2-.1,5.079,5.079,0,0,1-1.171-5.041.269.269,0,0,1,.151-.147.27.27,0,0,1,.21.006,3.737,3.737,0,0,1,2.074,2.444,3.539,3.539,0,0,1-.859,2.752A.269.269,0,0,1,939.361-244.017Zm-.973-4.642a4.669,4.669,0,0,0,.971,3.934,2.939,2.939,0,0,0,.523-2.049A2.966,2.966,0,0,0,938.388-248.659Z" transform="translate(-937.743 249.322)" fill="#080304"/></g></g><g transform="translate(0.27 0.27)"><path d="M909.935-254.739s-1.4,3.283-8.187,2.357c-6.787.925-8.187-2.357-8.187-2.357" transform="translate(-893.561 254.739)" fill="#4784b3"/></g><path d="M902.809-253.177a17.236,17.236,0,0,1-2.292-.163c-6.881.925-8.375-2.382-8.435-2.524a.269.269,0,0,1,.142-.354.269.269,0,0,1,.354.142c.013.03,1.432,3.079,7.9,2.2a.26.26,0,0,1,.073,0c6.469.883,7.89-2.167,7.9-2.2a.271.271,0,0,1,.354-.139.269.269,0,0,1,.141.353C908.9-255.74,907.74-253.177,902.809-253.177Z" transform="translate(-892.06 256.239)" fill="#080304"/><g transform="translate(7.118 0.505)"><g transform="translate(0.27 0.27)"><path d="M935.315-250.26a.734.734,0,0,1-.734.734h-.669a.734.734,0,0,1-.734-.734v-.935a.734.734,0,0,1,.734-.735h.669a.734.734,0,0,1,.734.735Z" transform="translate(-933.178 251.93)" fill="#255e80"/></g><path d="M933.351-250.488h-.669a1,1,0,0,1-1-1v-.935a1,1,0,0,1,1-1h.669a1,1,0,0,1,1,1v.935A1,1,0,0,1,933.351-250.488Zm-.669-2.4a.466.466,0,0,0-.465.465v.935a.465.465,0,0,0,.465.465h.669a.465.465,0,0,0,.464-.465v-.935a.465.465,0,0,0-.464-.465Z" transform="translate(-931.678 253.431)" fill="#080304"/></g></g></g></g><g transform="translate(0 0)"><g transform="translate(15.913)"><path d="M933.119-420.459a.266.266,0,0,1-.117-.027,2.529,2.529,0,0,1-1.443-2.971.27.27,0,0,1,.338-.176.27.27,0,0,1,.176.338,2.041,2.041,0,0,0,1.164,2.324.27.27,0,0,1,.124.36A.27.27,0,0,1,933.119-420.459Z" transform="translate(-931.446 423.645)" fill="#080304"/></g><g transform="translate(0 2.648)"><g transform="translate(0.281 0.27)"><path d="M861.456-379.01c6.791,0,17.015-1.693,17.012-12.12,0-11.114-7-16.28-17.012-16.28s-17.01,5.166-17.012,16.28C844.44-380.7,854.665-379.01,861.456-379.01Z" transform="translate(-844.444 407.41)" fill="#fff"/></g><g transform="translate(0.267 0.27)"><path d="M878.4-391.462c-1.5-2.858-5.509-2.378-5.509-2.378s-.454-6.6-7.08-6.624a5.24,5.24,0,0,0-4.421,2.309,5.242,5.242,0,0,0-4.422-2.309c-6.625.023-7.08,6.624-7.08,6.624s-4.013-.48-5.508,2.378c0,0-1.181-15.948,17.01-15.948S878.4-391.462,878.4-391.462Z" transform="translate(-844.367 407.41)" fill="#7c6a68"/></g><path d="M877.184-392.423a.27.27,0,0,1-.239-.145c-1.39-2.656-5.2-2.24-5.238-2.235a.272.272,0,0,1-.2-.06.27.27,0,0,1-.1-.189c-.018-.259-.521-6.351-6.812-6.373h-.02a4.925,4.925,0,0,0-4.169,2.177.27.27,0,0,1-.232.132h0a.27.27,0,0,1-.232-.132,4.927,4.927,0,0,0-4.169-2.177h-.02a6.221,6.221,0,0,0-5.791,3.185,8.4,8.4,0,0,0-1.021,3.188.27.27,0,0,1-.1.189.271.271,0,0,1-.2.06c-.039,0-3.848-.422-5.238,2.235a.27.27,0,0,1-.294.139.269.269,0,0,1-.214-.244c0-.066-.438-6.652,3.956-11.382,2.992-3.222,7.475-4.855,13.324-4.855s10.331,1.633,13.323,4.855c4.393,4.73,3.961,11.317,3.956,11.383a.269.269,0,0,1-.214.244A.272.272,0,0,1,877.184-392.423Zm-17.01-15.948c-5.69,0-10.039,1.574-12.925,4.679a15.768,15.768,0,0,0-3.826,10.123c1.519-1.833,4.158-1.841,5.012-1.791.182-1.273,1.3-6.582,7.316-6.6h.022a5.5,5.5,0,0,1,4.4,2.11,5.5,5.5,0,0,1,4.4-2.11h.022c6.013.021,7.134,5.331,7.316,6.6.853-.05,3.492-.042,5.012,1.791a15.771,15.771,0,0,0-3.826-10.124C870.213-406.8,865.864-408.371,860.174-408.371Z" transform="translate(-842.881 408.91)" fill="#7c6a68"/><g transform="translate(0.011)"><path d="M860.226-379.972a24.86,24.86,0,0,1-11.176-2.179c-4.053-2.055-6.107-5.49-6.106-10.21,0-10.517,6.3-16.55,17.282-16.55s17.278,6.032,17.282,16.55c0,4.72-2.053,8.155-6.106,10.21A24.859,24.859,0,0,1,860.226-379.972Zm0-28.4c-10.638,0-16.741,5.836-16.743,16.011a10.135,10.135,0,0,0,5.81,9.729,24.339,24.339,0,0,0,10.932,2.121,24.336,24.336,0,0,0,10.932-2.121,10.136,10.136,0,0,0,5.811-9.729C876.965-402.535,870.863-408.371,860.226-408.371Z" transform="translate(-842.944 408.91)" fill="#080304"/></g><g transform="translate(12.468 11.63)"><g transform="translate(1.875 2.364)"><g transform="translate(0.27 0.27)"><path d="M926.889-326.24c1.473,0,2.68-.621,2.68-1.508s-1.278-1.776-2.68-1.776-2.68.887-2.68,1.776S925.416-326.24,926.889-326.24Z" transform="translate(-924.209 329.524)" fill="#edb61d"/></g><path d="M925.659-327.2c-1.709,0-2.95-.748-2.95-1.778,0-1.07,1.406-2.045,2.95-2.045s2.949.975,2.949,2.045C928.608-327.949,927.368-327.2,925.659-327.2Zm0-3.284c-1.335,0-2.411.824-2.411,1.506s1.059,1.238,2.411,1.238,2.41-.544,2.41-1.238C928.069-329.657,926.957-330.485,925.659-330.485Z" transform="translate(-922.709 331.024)" fill="#080304"/><g transform="translate(1.136 1.509)"><path d="M930.845-321.5a1.947,1.947,0,0,1-1.778-.722.27.27,0,0,1,.1-.368.27.27,0,0,1,.368.1c.009.014.3.451,1.311.451s1.3-.438,1.313-.457a.272.272,0,0,1,.369-.089.267.267,0,0,1,.1.362A1.948,1.948,0,0,1,930.845-321.5Z" transform="translate(-929.031 322.628)" fill="#080304"/></g></g><path d="M914.222-342.661c0,.84-.436,1.52-.974,1.52s-.976-.68-.976-1.52.437-1.52.976-1.52S914.222-343.5,914.222-342.661Z" transform="translate(-912.272 344.181)" fill="#080304"/><g transform="translate(7.7)"><path d="M955.126-342.661c0,.84.436,1.52.974,1.52s.975-.68.975-1.52-.436-1.52-.975-1.52S955.126-343.5,955.126-342.661Z" transform="translate(-955.126 344.181)" fill="#080304"/></g></g></g></g></g></g></g></svg>