<svg xmlns="http://www.w3.org/2000/svg" xmlns:xlink="http://www.w3.org/1999/xlink" width="50" height="50" viewBox="0 0 50 50"><defs><clipPath id="a"><rect width="50" height="50" rx="25" transform="translate(409 1116)" fill="#e98670"/></clipPath></defs><g transform="translate(-409 -1088)"><rect width="50" height="50" rx="25" transform="translate(409 1088)" fill="#ff9881"/><g transform="translate(0 -28)" clip-path="url(#a)"><g transform="translate(414 1125.447)"><g transform="translate(9.334 44.724)"><path d="M216.548-199.05s0,1.361-.15,4.484c-.142,2.942-1.177,3.084-1.825,3.084h-3.321c-.534,0-2.633-.052-2.635-2.118a2,2,0,0,1,1.963-2.079l.629-3.91" transform="translate(-208.347 199.857)" fill="#e98670"/><path d="M213.343-192.442h-3.321c-1.845,0-2.9-.87-2.9-2.387a2.219,2.219,0,0,1,2-2.33l.6-3.7a.269.269,0,0,1,.309-.223.27.27,0,0,1,.223.309l-.629,3.91a.27.27,0,0,1-.259.227,1.73,1.73,0,0,0-1.7,1.809c0,1.528,1.287,1.848,2.365,1.848h3.321c.461,0,1.419,0,1.556-2.828.149-3.078.149-4.457.149-4.471a.269.269,0,0,1,.269-.27h0a.27.27,0,0,1,.27.269c0,.014,0,1.4-.15,4.5C215.294-192.822,214.242-192.442,213.343-192.442Z" transform="translate(-207.117 201.088)" fill="#080304"/><g transform="translate(0.27 2.949)"><path d="M210.778-184.677l-.2,1.231a2,2,0,0,0-1.963,2.079c0,2.065,2.1,2.118,2.635,2.118h3.321c.649,0,1.683-.143,1.825-3.084.033-.68.059-1.271.078-1.788A28.424,28.424,0,0,1,210.778-184.677Z" transform="translate(-208.617 184.677)" fill="#fff"/></g><g transform="translate(2.162 3.685)"><path d="M224.469-179.336c-3.972,0-5.143-.715-5.193-.746a.269.269,0,0,1-.083-.372.27.27,0,0,1,.37-.084c.026.015,1.283.733,5.509.658a.264.264,0,0,1,.274.265.27.27,0,0,1-.265.274Q224.765-179.336,224.469-179.336Z" transform="translate(-219.151 180.579)" fill="#a2c545"/></g><g transform="translate(1.963 3.91)"><path d="M219.54-177.825a3.114,3.114,0,0,1,.788.12" transform="translate(-219.27 178.095)" fill="#b8dff6"/><path d="M219.1-178.666a.268.268,0,0,1-.078-.012,2.86,2.86,0,0,0-.71-.108.269.269,0,0,1-.27-.27.269.269,0,0,1,.27-.27,3.366,3.366,0,0,1,.867.132.269.269,0,0,1,.179.336A.27.27,0,0,1,219.1-178.666Z" transform="translate(-218.04 179.325)" fill="#080304"/></g><path d="M213.343-192.442h-3.321c-1.845,0-2.9-.87-2.9-2.387a2.219,2.219,0,0,1,2-2.33l.6-3.7a.269.269,0,0,1,.309-.223.27.27,0,0,1,.223.309l-.629,3.91a.27.27,0,0,1-.259.227,1.73,1.73,0,0,0-1.7,1.809c0,1.528,1.287,1.848,2.365,1.848h3.321c.461,0,1.419,0,1.556-2.828.149-3.078.149-4.457.149-4.471a.269.269,0,0,1,.269-.27h0a.27.27,0,0,1,.27.269c0,.014,0,1.4-.15,4.5C215.294-192.822,214.242-192.442,213.343-192.442Z" transform="translate(-207.117 201.088)" fill="#080304"/><g transform="translate(2.254 2.591)"><path d="M225.464-185.477a19.9,19.9,0,0,1-5.613-.663.269.269,0,0,1-.174-.339.27.27,0,0,1,.339-.174,19.827,19.827,0,0,0,5.45.637c.025,0,.045,0,.076,0a.27.27,0,0,1,.27.269.27.27,0,0,1-.269.27Z" transform="translate(-219.664 186.666)" fill="#080304"/></g><g transform="translate(12.535 0)"><path d="M278.383-199.05s0,1.361.15,4.484c.142,2.942,1.177,3.084,1.826,3.084h3.321c.534,0,2.633-.052,2.634-2.118a2,2,0,0,0-1.962-2.079l-.629-3.91" transform="translate(-278.113 199.857)" fill="#e98670"/><path d="M282.449-192.441h-3.321c-.9,0-1.952-.38-2.095-3.341-.15-3.094-.15-4.484-.15-4.5a.27.27,0,0,1,.269-.269h0a.27.27,0,0,1,.269.27c0,.014,0,1.393.149,4.471.137,2.828,1.1,2.828,1.557,2.828h3.321c1.078,0,2.364-.321,2.365-1.848a1.72,1.72,0,0,0-1.7-1.809.269.269,0,0,1-.259-.227l-.629-3.91a.269.269,0,0,1,.223-.309.27.27,0,0,1,.309.223l.6,3.7a2.218,2.218,0,0,1,2,2.33C285.353-193.311,284.294-192.441,282.449-192.441Z" transform="translate(-276.883 201.087)" fill="#080304"/><g transform="translate(0.34 2.948)"><path d="M284.477-184.677l.2,1.231a2,2,0,0,1,1.962,2.079c0,2.065-2.1,2.118-2.634,2.118h-3.321c-.649,0-1.683-.143-1.826-3.084-.033-.68-.058-1.271-.079-1.788A28.417,28.417,0,0,0,284.477-184.677Z" transform="translate(-278.778 184.677)" fill="#fff"/></g><g transform="translate(0.113 3.686)"><path d="M278.388-179.33q-.3,0-.612-.005a.27.27,0,0,1-.265-.274.269.269,0,0,1,.269-.265h0c4.25.075,5.5-.651,5.509-.659a.271.271,0,0,1,.37.088.268.268,0,0,1-.083.369C283.531-180.045,282.359-179.33,278.388-179.33Z" transform="translate(-277.511 180.572)" fill="#a2c545"/></g><g transform="translate(5.181 3.91)"><path d="M308-177.825a3.112,3.112,0,0,0-.788.12" transform="translate(-306.947 178.095)" fill="#b8dff6"/><path d="M305.986-178.666a.27.27,0,0,1-.258-.192.269.269,0,0,1,.18-.336,3.364,3.364,0,0,1,.866-.132.27.27,0,0,1,.269.27.269.269,0,0,1-.269.27,2.862,2.862,0,0,0-.71.108A.266.266,0,0,1,305.986-178.666Z" transform="translate(-305.716 179.325)" fill="#080304"/></g><path d="M282.449-192.441h-3.321c-.9,0-1.952-.38-2.095-3.341-.15-3.094-.15-4.484-.15-4.5a.27.27,0,0,1,.269-.269h0a.27.27,0,0,1,.269.27c0,.014,0,1.393.149,4.471.137,2.828,1.1,2.828,1.557,2.828h3.321c1.078,0,2.364-.321,2.365-1.848a1.72,1.72,0,0,0-1.7-1.809.269.269,0,0,1-.259-.227l-.629-3.91a.269.269,0,0,1,.223-.309.27.27,0,0,1,.309.223l.6,3.7a2.218,2.218,0,0,1,2,2.33C285.353-193.311,284.294-192.441,282.449-192.441Z" transform="translate(-276.883 201.087)" fill="#080304"/><g transform="translate(0.068 2.591)"><path d="M277.611-185.477h-.078a.269.269,0,0,1-.269-.27.269.269,0,0,1,.269-.269h.076a19.822,19.822,0,0,0,5.45-.637.269.269,0,0,1,.339.174.269.269,0,0,1-.174.339A19.9,19.9,0,0,1,277.611-185.477Z" transform="translate(-277.264 186.666)" fill="#080304"/></g></g></g><g transform="translate(7.71 32.124)"><g transform="translate(2.642)"><path d="M231.179-269.716a42.942,42.942,0,0,1,1.531,12.643,24.807,24.807,0,0,1-9.216,1.526,24.809,24.809,0,0,1-9.216-1.526,42.937,42.937,0,0,1,1.532-12.643" transform="translate(-214.008 269.986)" fill="#784a42"/><path d="M222.264-256.509a24.856,24.856,0,0,1-9.325-1.549.269.269,0,0,1-.161-.246,43.7,43.7,0,0,1,1.546-12.73.27.27,0,0,1,.341-.17.27.27,0,0,1,.17.341,42.975,42.975,0,0,0-1.518,12.375,25.7,25.7,0,0,0,8.947,1.438,25.7,25.7,0,0,0,8.947-1.438,42.989,42.989,0,0,0-1.517-12.375.27.27,0,0,1,.17-.341.27.27,0,0,1,.341.17,43.707,43.707,0,0,1,1.545,12.73.269.269,0,0,1-.161.246A24.856,24.856,0,0,1,222.264-256.509Zm9.216-1.8h0Z" transform="translate(-212.778 271.217)" fill="#080304"/></g><g transform="translate(0 0.613)"><path d="M203.906-255.669s-4.47.215-4.327-3.848,3.933-6.788,3.933-6.788a11.788,11.788,0,0,0,2.293.52" transform="translate(-199.307 266.576)" fill="#784a42"/><path d="M202.549-256.629a5.154,5.154,0,0,1-3.45-1.236,3.7,3.7,0,0,1-1.019-2.893c.146-4.147,3.886-6.883,4.045-7a.269.269,0,0,1,.242-.037,11.593,11.593,0,0,0,2.224.507.27.27,0,0,1,.254.285.273.273,0,0,1-.285.253,11.113,11.113,0,0,1-2.226-.49c-.6.475-3.592,3-3.715,6.5a3.189,3.189,0,0,0,.857,2.489,4.791,4.791,0,0,0,3.188,1.081.268.268,0,0,1,.282.257.269.269,0,0,1-.256.282C202.677-256.631,202.628-256.629,202.549-256.629Z" transform="translate(-198.076 267.807)" fill="#080304"/><g transform="translate(4.65 5.002)"><path d="M224.226-238.884H224.2a.269.269,0,0,1-.243-.294l.052-.547a.269.269,0,0,1,.294-.243.269.269,0,0,1,.243.294l-.052.547A.269.269,0,0,1,224.226-238.884Z" transform="translate(-223.956 239.97)" fill="#663b35"/></g><g transform="translate(4.676 6.905)"><path d="M226.785-227.877A9.474,9.474,0,0,1,225.6-224.1" transform="translate(-225.33 228.146)" fill="#784a42"/><path d="M224.369-225.062a.268.268,0,0,1-.153-.048.269.269,0,0,1-.068-.375,9.26,9.26,0,0,0,1.138-3.646.271.271,0,0,1,.293-.244.27.27,0,0,1,.244.293,9.624,9.624,0,0,1-1.232,3.9A.269.269,0,0,1,224.369-225.062Z" transform="translate(-224.099 229.376)" fill="#080304"/></g><g transform="translate(17.485)"><path d="M298.793-255.669s4.47.215,4.327-3.848-3.933-6.788-3.933-6.788a11.78,11.78,0,0,1-2.293.52" transform="translate(-296.623 266.576)" fill="#784a42"/><path d="M297.688-256.629c-.079,0-.127,0-.139,0a.269.269,0,0,1-.256-.282.267.267,0,0,1,.282-.257,4.794,4.794,0,0,0,3.188-1.081,3.19,3.19,0,0,0,.857-2.489c-.124-3.509-3.111-6.024-3.715-6.5a11.117,11.117,0,0,1-2.226.49.269.269,0,0,1-.285-.253.27.27,0,0,1,.253-.285,11.589,11.589,0,0,0,2.224-.507.269.269,0,0,1,.242.037c.159.114,3.9,2.851,4.045,7a3.7,3.7,0,0,1-1.019,2.893A5.154,5.154,0,0,1,297.688-256.629Z" transform="translate(-295.392 267.807)" fill="#080304"/><g transform="translate(1.528 5.001)"><path d="M304.217-238.885a.269.269,0,0,1-.268-.244l-.052-.547a.27.27,0,0,1,.243-.294.269.269,0,0,1,.294.243l.052.547a.269.269,0,0,1-.243.294Z" transform="translate(-303.896 239.971)" fill="#663b35"/></g><g transform="translate(0.369 6.905)"><path d="M298.947-227.877a9.478,9.478,0,0,0,1.185,3.775" transform="translate(-298.678 228.146)" fill="#784a42"/><path d="M298.9-225.062a.269.269,0,0,1-.222-.116,9.625,9.625,0,0,1-1.231-3.9.27.27,0,0,1,.244-.293.272.272,0,0,1,.293.244,9.262,9.262,0,0,0,1.137,3.646.269.269,0,0,1-.068.375A.268.268,0,0,1,298.9-225.062Z" transform="translate(-297.448 229.376)" fill="#080304"/></g></g></g><g transform="translate(7.981 1.611)"><g transform="translate(0.68)"><path d="M247.893-260.748a15.656,15.656,0,0,0,0,3.572" transform="translate(-247.516 261.018)" fill="#ec745c"/><path d="M246.658-258.137a.269.269,0,0,1-.266-.232,15.753,15.753,0,0,1,0-3.644.27.27,0,0,1,.3-.233.269.269,0,0,1,.234.3,15.5,15.5,0,0,0,0,3.5.269.269,0,0,1-.229.3Z" transform="translate(-246.283 262.249)" fill="#080304"/></g><g transform="translate(0 2.785)"><path d="M245.571-244.461a.788.788,0,0,1-.788.788.787.787,0,0,1-.787-.788.787.787,0,0,1,.787-.787A.788.788,0,0,1,245.571-244.461Z" transform="translate(-243.727 245.518)" fill="#a2c545"/><path d="M243.553-244.634a1.058,1.058,0,0,1-1.056-1.057,1.058,1.058,0,0,1,1.056-1.057,1.058,1.058,0,0,1,1.057,1.057A1.058,1.058,0,0,1,243.553-244.634Zm0-1.575a.518.518,0,0,0-.517.518.518.518,0,0,0,.517.518.519.519,0,0,0,.518-.518A.519.519,0,0,0,243.553-246.209Z" transform="translate(-242.497 246.748)" fill="#080304"/></g><g transform="translate(6.157 0)"><g transform="translate(0.787)"><path d="M282.647-260.748a15.643,15.643,0,0,1,0,3.572" transform="translate(-282.378 261.017)" fill="#ec745c"/><path d="M281.417-258.136l-.038,0a.269.269,0,0,1-.229-.3,15.47,15.47,0,0,0,0-3.5.27.27,0,0,1,.233-.3.27.27,0,0,1,.3.233,15.752,15.752,0,0,1,0,3.644A.27.27,0,0,1,281.417-258.136Z" transform="translate(-281.147 262.247)" fill="#080304"/></g><g transform="translate(0 2.785)"><path d="M278.267-244.461a.787.787,0,0,0,.787.788.788.788,0,0,0,.787-.788.788.788,0,0,0-.787-.787A.787.787,0,0,0,278.267-244.461Z" transform="translate(-277.997 245.518)" fill="#a2c545"/><path d="M277.823-244.634a1.058,1.058,0,0,1-1.056-1.057,1.058,1.058,0,0,1,1.056-1.057,1.058,1.058,0,0,1,1.057,1.057A1.058,1.058,0,0,1,277.823-244.634Zm0-1.575a.518.518,0,0,0-.517.518.518.518,0,0,0,.517.518.518.518,0,0,0,.518-.518A.518.518,0,0,0,277.823-246.209Z" transform="translate(-276.767 246.748)" fill="#080304"/></g></g></g></g><g transform="translate(0 0)"><g transform="translate(3.294)"><path d="M175-433.8s4.954-14.337,7.945-14.7,7.338,8.516,7.338,8.516" transform="translate(-174.73 448.776)" fill="#e98670"/><path d="M173.769-434.755a.269.269,0,0,1-.088-.015.27.27,0,0,1-.167-.343c.513-1.484,5.1-14.507,8.167-14.88,3.145-.382,7.431,8.3,7.612,8.665a.269.269,0,0,1-.124.36.27.27,0,0,1-.361-.123c-1.186-2.421-4.764-8.647-7.063-8.367-2.315.281-6.359,10.577-7.722,14.521A.27.27,0,0,1,173.769-434.755Z" transform="translate(-173.5 450.005)" fill="#080304"/><g transform="translate(3.203 3.64)"><path d="M191.325-419.725s3.376-9.767,5.412-10.014,5,5.8,5,5.8" transform="translate(-191.325 429.746)" fill="#fff"/></g><g transform="translate(17.265 0)"><path d="M286.372-433.8s-4.955-14.337-7.944-14.7-7.338,8.516-7.338,8.516" transform="translate(-270.82 448.776)" fill="#e98670"/><path d="M285.141-434.754a.269.269,0,0,1-.255-.182c-1.363-3.943-5.408-14.24-7.722-14.521-2.3-.279-5.877,5.946-7.063,8.367a.27.27,0,0,1-.361.123.269.269,0,0,1-.123-.36c.181-.37,4.472-9.043,7.612-8.665,3.068.372,7.654,13.4,8.167,14.88a.27.27,0,0,1-.167.343A.269.269,0,0,1,285.141-434.754Z" transform="translate(-269.589 450.004)" fill="#080304"/><g transform="translate(2.207 3.64)"><path d="M292.283-419.725s-3.375-9.767-5.411-10.014-5,5.8-5,5.8" transform="translate(-281.872 429.746)" fill="#fff"/></g></g></g><g transform="translate(0 4.718)"><path d="M176.231-393.229c17.174,0,19.569-12,19.569-12-.446-.054-1.712-17.015-19.569-17.015s-19.122,16.96-19.567,17.015C156.664-405.231,159.058-393.229,176.231-393.229Z" transform="translate(-156.394 422.516)" fill="#784a42"/><path d="M175-394.19c-8.97,0-13.881-3.311-16.423-6.089a14.055,14.055,0,0,1-3.409-6.13.269.269,0,0,1,.046-.211.27.27,0,0,1,.03-.034c.042-.107.117-.423.19-.73a24.443,24.443,0,0,1,4.216-9.476c3.537-4.569,8.7-6.886,15.35-6.886s11.814,2.317,15.351,6.886a24.442,24.442,0,0,1,4.217,9.476c.073.306.148.622.19.729a.267.267,0,0,1,.03.034.271.271,0,0,1,.046.211,14.055,14.055,0,0,1-3.41,6.13C188.883-397.5,183.971-394.19,175-394.19ZM155.724-406.4A14.062,14.062,0,0,0,159-400.62c2.469,2.688,7.249,5.891,16,5.891s13.537-3.2,16.005-5.891a14.067,14.067,0,0,0,3.273-5.783,6.123,6.123,0,0,1-.235-.856c-2.525-10.582-8.932-15.948-19.043-15.948s-16.518,5.366-19.042,15.948A6.143,6.143,0,0,1,155.724-406.4Zm38.88-.326h0Zm-39.2,0h0Z" transform="translate(-155.164 423.746)" fill="#080304"/></g><g transform="translate(3.948 11.374)"><path d="M194.247-362.842c12.747,0,15.345-7.974,15.6-10,.419-3.342-4.7-12.361-15.6-12.361s-16.017,9.019-15.6,12.361C178.9-370.816,181.5-362.842,194.247-362.842Z" transform="translate(-178.358 385.473)" fill="#e98670"/><path d="M193.024-363.8c-5.508,0-9.772-1.453-12.673-4.318a10.8,10.8,0,0,1-3.192-5.918c-.189-1.505.707-4.371,3.12-7.1a16.652,16.652,0,0,1,12.745-5.56,16.653,16.653,0,0,1,12.747,5.561c2.412,2.734,3.308,5.6,3.119,7.1a10.8,10.8,0,0,1-3.192,5.918C202.8-365.255,198.533-363.8,193.024-363.8Zm0-22.361a16.12,16.12,0,0,0-12.341,5.377c-2.3,2.609-3.164,5.292-2.99,6.681a10.226,10.226,0,0,0,3.037,5.6c2.8,2.762,6.932,4.163,12.294,4.163s9.5-1.4,12.295-4.163a10.224,10.224,0,0,0,3.036-5.6c.174-1.389-.687-4.072-2.988-6.68A16.121,16.121,0,0,0,193.024-386.164Z" transform="translate(-177.135 386.703)" fill="#080304"/></g><g transform="translate(13.527 18.088)"><g transform="translate(1.447 0.821)"><path d="M240.741-343.215c0,.855-.5,1.547-1.118,1.547s-1.118-.692-1.118-1.547.5-1.547,1.118-1.547S240.741-344.07,240.741-343.215Z" transform="translate(-238.505 344.762)" fill="#080304"/><g transform="translate(7.49)"><path d="M280.192-343.215c0,.855.5,1.547,1.118,1.547s1.118-.692,1.118-1.547-.5-1.547-1.118-1.547S280.192-344.07,280.192-343.215Z" transform="translate(-280.192 344.762)" fill="#080304"/></g></g><g transform="translate(0.27)"><path d="M244.032-348.144a31.483,31.483,0,0,1-6.04.363,31.49,31.49,0,0,1-6.041-.363s.728-1.188,6.041-1.188S244.032-348.144,244.032-348.144Z" transform="translate(-231.951 349.332)" fill="#e98670"/></g><g transform="translate(0 0.919)"><path d="M244.032-342.72a31.483,31.483,0,0,1-6.04.363,31.49,31.49,0,0,1-6.041-.363" transform="translate(-231.681 342.989)" fill="#ee7c1a"/><path d="M236.761-343.317a31.512,31.512,0,0,1-6.1-.37.27.27,0,0,1-.2-.324.271.271,0,0,1,.324-.2,31.975,31.975,0,0,0,5.98.356,31.713,31.713,0,0,0,5.979-.356.27.27,0,0,1,.324.2.27.27,0,0,1-.2.324A31.5,31.5,0,0,1,236.761-343.317Z" transform="translate(-230.451 344.219)" fill="#080304"/></g><g transform="translate(3.045 3.492)"><g transform="translate(2.733)"><path d="M264.375-328.091c.438-.2.249-.308,0-.308S263.937-328.288,264.375-328.091Z" transform="translate(-263.842 328.668)" fill="#ee7c1a"/><path d="M263.141-329.053a.269.269,0,0,1-.11-.024c-.119-.053-.48-.215-.415-.519.019-.091.11-.3.525-.3s.5.212.524.3c.065.3-.3.466-.414.519A.268.268,0,0,1,263.141-329.053Z" transform="translate(-262.609 329.899)" fill="#080304"/></g><g transform="translate(2.996 0.324)"><line y2="0.766" transform="translate(0.27 0.27)" fill="#ec745c"/><path d="M264.342-326.791a.27.27,0,0,1-.27-.27v-.766a.27.27,0,0,1,.27-.27.27.27,0,0,1,.27.27v.766A.269.269,0,0,1,264.342-326.791Z" transform="translate(-264.073 328.096)" fill="#080304"/></g><g transform="translate(0 1.01)"><path d="M248.559-323.115a1.507,1.507,0,0,1-.682-.142.855.855,0,0,1-.475-.56.27.27,0,0,1,.212-.317.27.27,0,0,1,.315.2.363.363,0,0,0,.21.2c.251.114.9.2,2.408-.523a.27.27,0,0,1,.359.127.269.269,0,0,1-.127.359A5.509,5.509,0,0,1,248.559-323.115Z" transform="translate(-247.397 324.278)" fill="#080304"/><g transform="translate(2.996 0)"><path d="M266.446-323.114a5.509,5.509,0,0,1-2.22-.651.269.269,0,0,1-.127-.359.27.27,0,0,1,.359-.127c1.538.735,2.181.637,2.428.513a.368.368,0,0,0,.188-.183.27.27,0,0,1,.317-.212.27.27,0,0,1,.212.317.857.857,0,0,1-.475.56A1.509,1.509,0,0,1,266.446-323.114Z" transform="translate(-264.073 324.278)" fill="#080304"/></g></g></g><g transform="translate(11.672 3.284)"><path d="M295.89-330.813a.238.238,0,0,1-.238.238.238.238,0,0,1-.238-.238.238.238,0,0,1,.238-.239A.238.238,0,0,1,295.89-330.813Z" transform="translate(-295.414 331.052)" fill="#080304"/></g></g></g></g></g></g></svg>