<svg version="1.2" xmlns="http://www.w3.org/2000/svg" viewBox="0 0 50 50" width="50" height="50">
	<title>vector_profile_willy-svg</title>
	<defs>
		<clipPath clipPathUnits="userSpaceOnUse" id="cp1">
			<path d="m0 25c0-13.81 11.19-25 25-25 13.81 0 25 11.19 25 25 0 13.81-11.19 25-25 25-13.81 0-25-11.19-25-25z"/>
		</clipPath>
	</defs>
	<style>
		.s0 { fill: #0b81ff } 
		.s1 { fill: #c28e5f } 
		.s2 { fill: #080304 } 
		.s3 { fill: #bd8750 } 
		.s4 { fill: #bd8750;stroke: #080304;stroke-linecap: round;stroke-linejoin: round;stroke-width: 3 } 
		.s5 { fill: #ee7f43 } 
		.s6 { fill: #1fad5d } 
		.s7 { fill: #ffffff } 
		.s8 { fill: #09478b } 
	</style>
	<g id="Layer">
		<path id="Layer" class="s0" d="m0 25c0-13.8 11.2-25 25-25 13.8 0 25 11.2 25 25 0 13.8-11.2 25-25 25-13.8 0-25-11.2-25-25z"/>
		<g id="Clip-Path" clip-path="url(#cp1)">
			<g id="Layer">
				<g id="Layer">
					<g id="Layer">
						<g id="Layer">
							<g id="Layer">
								<g id="Layer">
									<path id="Layer" class="s1" d="m24.1 51.1c0 0 0 1.6 0 5.2 0 2.7-0.1 3.3-1.8 3.3h-4.2c-0.6 0-2.9 0-2.9-2.4q-0.1-0.4 0.1-0.8 0.2-0.5 0.5-0.8 0.3-0.3 0.7-0.5 0.4-0.2 0.9-0.2l0.2-4.2z"/>
								</g>
								<path id="Layer" fill-rule="evenodd" class="s2" d="m22.3 59.9h-4.2c-2 0-3.2-1-3.2-2.7q0-0.4 0.1-0.9 0.2-0.4 0.5-0.8 0.3-0.4 0.7-0.6 0.4-0.2 0.9-0.3l0.2-3.9q0 0 0-0.1 0 0 0 0 0 0 0.1-0.1 0 0 0 0 0 0 0 0 0.1-0.1 0.1-0.1 0 0 0 0 0.1 0 0.1 0l6.6 0.4q0 0 0.1 0 0 0 0 0.1 0.1 0 0.1 0.1 0 0 0 0.1c0 0 0 1.7 0 5.2 0 2.7-0.1 3.6-2.1 3.6zm-4.5-8.9l-0.2 3.9q0 0 0 0.1 0 0 0 0.1-0.1 0-0.1 0-0.1 0.1-0.1 0.1-0.4 0-0.8 0.1-0.4 0.2-0.6 0.5-0.3 0.3-0.5 0.7-0.1 0.3-0.1 0.7c0 1.8 1.5 2.2 2.7 2.2h4.2c1.4 0 1.5-0.3 1.5-3.1q0-4.1 0.1-5z"/>
								<g id="Layer">
									<g id="Layer">
										<path id="Layer" class="s3" d="m17.4 54.9q0.1 0 0.2 0 0.1 0 0.2 0 0.1 0 0.2 0.1 0.2 0 0.3 0"/>
										<path id="Layer" class="s2" d="m18.3 55.3q0 0-0.1 0 0 0 0 0 0 0 0 0 0 0 0 0-0.1 0-0.2-0.1-0.1 0-0.2 0-0.1 0-0.2 0-0.1 0-0.2 0-0.1 0-0.1-0.1-0.1 0-0.1 0-0.1-0.1-0.1-0.1 0-0.1 0-0.1 0-0.1 0-0.1 0-0.1 0.1-0.1 0 0 0.1-0.1 0 0 0.1 0 0.1 0 0.2 0 0.1 0 0.3 0.1 0.1 0 0.2 0 0.1 0 0.2 0.1 0.1 0 0.1 0 0.1 0.1 0.1 0.1 0 0 0 0.1 0 0.1 0 0.1 0 0 0 0.1 0 0-0.1 0 0 0.1 0 0.1-0.1 0-0.1 0z"/>
									</g>
									<g id="Layer">
										<path id="Layer" class="s4" d=""/>
									</g>
								</g>
							</g>
							<g id="Layer">
								<g id="Layer">
									<path id="Layer" class="s1" d="m32.8 50.7l0.2 4.2q0.4 0 0.8 0.2 0.4 0.2 0.8 0.5 0.3 0.3 0.4 0.8 0.2 0.4 0.2 0.8c0 2.4-2.4 2.4-3 2.4h-4.2c-1.9 0-1.8-0.6-1.8-3.3 0-3.6 0-5.2 0-5.2z"/>
								</g>
								<path id="Layer" fill-rule="evenodd" class="s2" d="m32.2 59.9h-4.2q-0.2 0-0.4 0-0.2 0-0.4 0-0.2-0.1-0.4-0.2-0.2-0.1-0.4-0.2c-0.5-0.5-0.5-1.3-0.4-2.7v-0.5c0-3.5-0.1-5.2-0.1-5.2q0-0.1 0-0.1 0.1-0.1 0.1-0.1 0-0.1 0.1-0.1 0 0 0.1 0l6.5-0.4q0.1 0 0.1 0 0 0 0 0 0.1 0 0.1 0.1 0 0 0 0 0.1 0 0.1 0 0 0.1 0 0.1 0 0 0 0 0 0.1 0 0.1l0.2 3.9q0.5 0.1 0.9 0.3 0.4 0.2 0.7 0.6 0.4 0.4 0.5 0.8 0.2 0.5 0.1 0.9c0 1.7-1.1 2.7-3.2 2.7zm-5.7-8.6c0 0.6 0 2.3 0 5v0.5c0 1.2 0 2 0.3 2.3 0.2 0.2 0.6 0.3 1.2 0.3h4.2c1.2 0 2.7-0.4 2.7-2.2q0-0.4-0.1-0.7-0.2-0.4-0.4-0.7-0.3-0.3-0.7-0.5-0.4-0.1-0.8-0.1 0 0-0.1-0.1 0 0 0 0-0.1-0.1-0.1-0.1 0-0.1 0-0.1l-0.2-3.9z"/>
								<g id="Layer">
									<g id="Layer">
										<path id="Layer" class="s3" d="m32.1 55q0.1 0 0.2 0 0.1-0.1 0.2-0.1 0.1 0 0.2 0 0.1 0 0.2 0"/>
										<path id="Layer" class="s2" d="m32.1 55.3q-0.1 0-0.1 0-0.1 0-0.1-0.1 0 0-0.1 0 0-0.1 0-0.1 0 0 0-0.1 0-0.1 0-0.1 0-0.1 0.1-0.1 0 0 0.1 0 0.1-0.1 0.2-0.1 0.1 0 0.3 0 0.1-0.1 0.2-0.1 0.1 0 0.3 0 0 0 0.1 0 0 0.1 0 0.1 0.1 0 0.1 0.1 0 0 0 0.1 0 0 0 0.1 0 0-0.1 0.1 0 0 0 0-0.1 0.1-0.1 0.1-0.2 0-0.3 0-0.1 0-0.2 0-0.1 0-0.2 0-0.1 0.1-0.2 0.1 0 0 0 0 0 0 0 0 0 0 0 0 0 0 0 0z"/>
									</g>
									<g id="Layer">
										<path id="Layer" class="s4" d=""/>
									</g>
								</g>
							</g>
						</g>
						<g id="Layer">
							<path id="Layer" class="s1" d="m18.1 50.3c0 0 0 2.4-3.2 2.3-3-0.1-4.2-2.9-3.1-7.4q0.2-1 0.6-1.9 0.4-1 0.8-1.9 0.5-0.9 1.1-1.7 0.6-0.8 1.4-1.5"/>
						</g>
						<path id="Layer" class="s2" d="m15.1 52.9q-0.1 0-0.2 0-0.4 0-0.8-0.1-0.4-0.1-0.8-0.3-0.3-0.1-0.7-0.4-0.3-0.3-0.5-0.6c-1.1-1.3-1.2-3.5-0.6-6.4q0.3-1 0.6-2 0.4-0.9 0.9-1.8 0.5-0.9 1.1-1.8 0.6-0.8 1.4-1.5 0-0.1 0.1-0.1 0 0 0.1 0 0 0 0.1 0 0 0.1 0.1 0.1 0 0 0 0.1 0 0 0 0.1 0 0.1 0 0.1 0 0-0.1 0.1-0.7 0.7-1.2 1.5-0.6 0.8-1.1 1.7-0.5 0.8-0.8 1.8-0.4 0.9-0.6 1.9c-0.7 2.6-0.5 4.7 0.4 5.9q0.2 0.3 0.5 0.5 0.3 0.2 0.6 0.4 0.3 0.1 0.6 0.2 0.4 0.1 0.7 0 0.3 0.1 0.6 0.1 0.4-0.1 0.6-0.2 0.3-0.1 0.6-0.2 0.3-0.1 0.5-0.3 0.2-0.2 0.3-0.3 0.1-0.2 0.2-0.4 0-0.2 0.1-0.4 0-0.2 0.1-0.3 0-0.1 0-0.2 0 0 0 0 0.1-0.1 0.1-0.1 0.1 0 0.1 0 0.1 0 0.1 0 0.1 0 0.1 0.1 0 0 0.1 0 0 0.1 0 0.2 0 0.2-0.1 0.4 0 0.3-0.1 0.5-0.1 0.2-0.3 0.5-0.1 0.2-0.3 0.3-0.3 0.3-0.6 0.4-0.2 0.2-0.6 0.3-0.3 0.1-0.6 0.2-0.4 0-0.7 0z"/>
						<g id="Layer">
							<g id="Layer">
								<path id="Layer" class="s1" d="m34.7 38.2q0.7 0.7 1.3 1.5 0.6 0.8 1.1 1.7 0.5 0.9 0.8 1.9 0.4 0.9 0.6 1.9c1.1 4.5-0.1 7.3-3.1 7.4-3.2 0.1-3.2-2.4-3.2-2.4"/>
							</g>
							<path id="Layer" class="s2" d="m35.2 52.9q-0.3 0-0.7 0-0.3-0.1-0.6-0.2-0.3-0.1-0.6-0.3-0.3-0.1-0.6-0.4-0.1-0.1-0.3-0.3-0.1-0.3-0.2-0.5-0.1-0.2-0.2-0.5-0.1-0.2-0.1-0.4 0-0.1 0.1-0.2 0 0 0 0 0.1-0.1 0.1-0.1 0.1 0 0.1 0 0.1 0 0.1 0 0.1 0 0.1 0.1 0 0 0.1 0 0 0.1 0 0.2 0 0.1 0 0.3 0.1 0.2 0.2 0.4 0 0.2 0.2 0.4 0.1 0.1 0.2 0.3 0.2 0.2 0.5 0.3 0.3 0.1 0.6 0.2 0.3 0.1 0.6 0.2 0.3 0 0.6-0.1 0.3 0.1 0.7 0 0.3-0.1 0.7-0.2 0.3-0.2 0.5-0.4 0.3-0.2 0.5-0.5c1-1.2 1.1-3.3 0.5-5.9q-0.3-1-0.6-1.9-0.4-1-0.9-1.8-0.4-0.9-1-1.7-0.6-0.8-1.3-1.5 0-0.1-0.1-0.1 0 0 0-0.1 0-0.1 0-0.1 0-0.1 0.1-0.1 0 0 0.1-0.1 0 0 0.1 0 0 0 0.1 0 0 0 0.1 0.1 0.7 0.7 1.3 1.5 0.6 0.9 1.1 1.8 0.5 0.9 0.9 1.8 0.4 1 0.6 2c0.7 2.9 0.5 5.1-0.5 6.4q-0.3 0.3-0.6 0.6-0.3 0.3-0.7 0.4-0.4 0.2-0.8 0.3-0.4 0.1-0.8 0.1-0.1 0-0.2 0z"/>
						</g>
						<g id="Layer">
							<g id="Layer">
								<path id="Layer" class="s1" d="m34.3 40.7q0.4 0.7 0.7 1.4 0.3 0.7 0.5 1.5 0.2 0.7 0.3 1.5 0.1 0.8 0 1.6c0 4-3.5 7.1-10.6 7.1-7.1 0-10.7-3.1-10.7-7.1q0-0.8 0.1-1.6 0-0.8 0.2-1.5 0.2-0.8 0.5-1.5 0.4-0.7 0.8-1.4"/>
							</g>
							<path id="Layer" class="s2" d="m25.2 54c-8.1 0-11-3.7-11-7.3q0-0.8 0.1-1.6 0.1-0.8 0.3-1.6 0.2-0.8 0.5-1.5 0.3-0.8 0.8-1.5 0 0 0-0.1 0.1 0 0.1 0 0.1 0 0.1 0 0.1 0 0.1 0.1 0.1 0 0.1 0 0 0.1 0 0.1 0 0.1 0 0.1 0 0.1 0 0.1-0.4 0.7-0.7 1.4-0.3 0.7-0.5 1.5-0.2 0.7-0.3 1.5-0.1 0.7 0 1.5c0 4.2 4 6.8 10.4 6.8 6.4 0 10.4-2.6 10.4-6.8q0-0.8-0.1-1.5-0.1-0.8-0.3-1.5-0.2-0.8-0.5-1.5-0.3-0.7-0.7-1.4 0 0 0-0.1 0 0 0-0.1 0 0 0-0.1 0.1 0 0.1 0 0-0.1 0.1-0.1 0 0 0.1 0 0 0 0.1 0 0 0.1 0.1 0.1 0.4 0.7 0.7 1.5 0.4 0.7 0.6 1.5 0.2 0.8 0.2 1.6 0.1 0.8 0.1 1.6c0 3.6-2.9 7.3-10.9 7.3z"/>
						</g>
						<g id="Layer">
							<g id="Layer">
								<path id="Layer" class="s5" d="m35.1 41.3c0 0-7.4 4.8-9.9 4.8-2.6 0-10-4.8-10-4.8"/>
								<path id="Layer" class="s2" d="m25.2 46.3c-2.6 0-9.8-4.5-10.1-4.7q0-0.1-0.1-0.1 0 0 0-0.1 0 0 0-0.1 0-0.1 0-0.1 0.1 0 0.1-0.1 0 0 0.1 0 0 0 0.1 0 0 0 0.1 0c0.1 0.1 7.3 4.7 9.8 4.7 2.4 0 9.7-4.6 9.7-4.7q0.1 0 0.1 0 0.1 0 0.1 0 0.1 0 0.1 0 0.1 0.1 0.1 0.1 0 0 0 0.1 0.1 0.1 0 0.1 0 0.1 0 0.1 0 0-0.1 0.1c-0.3 0.2-7.4 4.7-10 4.7z"/>
							</g>
							<path id="Layer" class="s6" d="m13.6 41.1c0 0 0.8-0.7 2.3 0.1q-0.4 0.7-0.6 1.4-0.3 0.7-0.5 1.5-0.2 0.7-0.3 1.5 0 0.8 0 1.5c0 0.6-1.6-3.2-0.9-6z"/>
							<path id="Layer" fill-rule="evenodd" class="s2" d="m14.5 47.4q0 0-0.1 0 0 0 0 0-0.1 0-0.1-0.1 0 0 0 0c-0.1-0.2-1.7-3.4-0.9-6.3q0 0 0 0 0 0 0-0.1 0 0 0 0 0 0 0.1 0c0-0.1 0.9-0.9 2.5 0.1q0 0 0.1 0 0 0 0 0 0 0 0 0.1 0 0 0.1 0 0 0 0 0.1 0 0 0 0 0 0 0 0.1-0.1 0-0.1 0-0.3 0.7-0.6 1.4-0.3 0.7-0.4 1.4-0.2 0.8-0.3 1.5-0.1 0.8 0 1.5 0 0.1 0 0.1 0 0.1-0.1 0.1 0 0 0 0.1-0.1 0-0.1 0 0 0 0 0 0 0-0.1 0 0 0 0 0 0 0 0 0zm-0.6-6.2q-0.1 0.6-0.2 1.2 0 0.5 0.1 1.1 0 0.6 0.1 1.1 0.1 0.6 0.3 1.1 0.1-0.6 0.2-1.1 0.1-0.6 0.3-1.2 0.1-0.5 0.4-1 0.2-0.6 0.4-1.1-0.2-0.1-0.4-0.2-0.2 0-0.4-0.1-0.2 0-0.4 0.1-0.2 0-0.4 0.1z"/>
							<g id="Layer">
								<path id="Layer" class="s6" d="m35.8 47.1q0.1-0.7 0-1.5-0.1-0.8-0.3-1.5-0.1-0.8-0.4-1.5-0.3-0.7-0.7-1.4c1.5-0.8 2.3-0.1 2.3-0.1 0.7 2.8-0.9 6.6-0.9 6z"/>
								<path id="Layer" fill-rule="evenodd" class="s2" d="m35.8 47.4q0 0 0 0 0 0 0 0 0 0 0 0 0 0 0 0-0.1 0-0.1 0-0.1-0.1-0.1-0.1 0 0 0-0.1 0 0 0-0.1 0-0.7-0.1-1.5-0.1-0.7-0.2-1.5-0.2-0.7-0.5-1.4-0.2-0.7-0.6-1.4 0 0 0 0 0-0.1 0-0.1 0 0 0 0 0-0.1 0-0.1 0 0 0 0 0-0.1 0-0.1 0 0 0.1 0 0 0 0 0c1.6-1 2.5-0.2 2.6-0.1q0 0 0 0 0 0 0 0 0 0.1 0 0.1 0 0 0.1 0c0.7 2.9-0.9 6.1-0.9 6.3q0 0-0.1 0 0 0.1 0 0.1-0.1 0-0.1 0 0 0-0.1 0zm-1-6.1q0.3 0.5 0.5 1.1 0.2 0.5 0.4 1 0.1 0.6 0.2 1.2 0.1 0.5 0.2 1.1 0.2-0.5 0.3-1.1 0.1-0.5 0.2-1.1 0-0.6 0-1.1 0-0.6-0.1-1.2-0.2-0.1-0.5-0.1-0.2-0.1-0.4-0.1-0.2 0.1-0.4 0.1-0.2 0.1-0.4 0.2z"/>
							</g>
						</g>
					</g>
					<g id="Layer">
						<g id="Layer">
							<g id="Layer">
								<path id="Layer" class="s1" d="m18.3 16.4q0 0.9-0.3 1.7-0.4 0.9-1 1.5-0.6 0.6-1.5 1-0.8 0.3-1.7 0.3-0.9 0-1.7-0.3-0.8-0.4-1.5-1-0.6-0.6-0.9-1.5-0.4-0.8-0.4-1.7 0-0.9 0.4-1.7 0.3-0.8 0.9-1.5 0.7-0.6 1.5-0.9 0.8-0.4 1.7-0.4 0.9 0 1.7 0.4 0.9 0.3 1.5 0.9 0.6 0.7 1 1.5 0.3 0.8 0.3 1.7z"/>
							</g>
							<path id="Layer" fill-rule="evenodd" class="s2" d="m13.8 21.2q-0.9 0-1.8-0.4-0.9-0.4-1.6-1-0.6-0.7-1-1.6-0.3-0.8-0.3-1.8 0-0.9 0.3-1.8 0.4-0.9 1-1.6 0.7-0.6 1.6-1 0.9-0.3 1.8-0.4 1 0.1 1.8 0.4 0.9 0.4 1.6 1 0.6 0.7 1 1.6 0.4 0.9 0.4 1.8 0 1-0.4 1.8-0.4 0.9-1 1.6-0.7 0.6-1.6 1-0.8 0.4-1.8 0.4zm0-9q-0.8 0-1.6 0.3-0.8 0.3-1.4 0.9-0.6 0.6-0.9 1.4-0.3 0.8-0.3 1.6 0 0.8 0.3 1.6 0.3 0.8 0.9 1.4 0.6 0.6 1.4 0.9 0.8 0.3 1.6 0.3 0.9 0 1.6-0.3 0.8-0.3 1.4-0.9 0.6-0.6 0.9-1.4 0.3-0.8 0.3-1.6 0-0.8-0.3-1.6-0.3-0.8-0.9-1.4-0.6-0.6-1.4-0.9-0.7-0.3-1.6-0.3z"/>
							<g id="Layer" style="opacity: .7">
								<path id="Layer" class="s7" d="m16 16.4q0 0.4-0.2 0.8-0.1 0.4-0.5 0.7-0.3 0.3-0.7 0.5-0.4 0.2-0.8 0.2-0.4 0-0.8-0.2-0.4-0.2-0.7-0.5-0.3-0.3-0.5-0.7-0.2-0.4-0.2-0.8 0-0.4 0.2-0.8 0.2-0.4 0.5-0.7 0.3-0.3 0.7-0.5 0.4-0.2 0.8-0.2 0.4 0 0.8 0.2 0.4 0.2 0.7 0.5 0.4 0.3 0.5 0.7 0.2 0.4 0.2 0.8z"/>
							</g>
							<g id="Layer">
								<g id="Layer">
									<path id="Layer" class="s1" d="m32.4 14.7q0.3-0.8 0.9-1.5 0.7-0.6 1.5-0.9 0.8-0.4 1.7-0.4 0.9 0 1.7 0.4 0.9 0.3 1.5 0.9 0.6 0.7 1 1.5 0.3 0.8 0.3 1.7 0 0.9-0.3 1.7-0.4 0.9-1 1.5-0.6 0.6-1.5 1-0.8 0.3-1.7 0.3-0.9 0-1.7-0.3-0.8-0.4-1.5-1-0.6-0.6-0.9-1.5-0.4-0.8-0.4-1.7 0-0.9 0.4-1.7z"/>
								</g>
								<path id="Layer" fill-rule="evenodd" class="s2" d="m36.5 21.2q-0.9 0-1.8-0.4-0.9-0.4-1.5-1-0.7-0.7-1.1-1.6-0.3-0.8-0.3-1.8 0-0.9 0.3-1.8 0.4-0.9 1.1-1.6 0.6-0.6 1.5-1 0.9-0.3 1.8-0.4 1 0.1 1.8 0.4 0.9 0.4 1.6 1 0.7 0.7 1 1.6 0.4 0.9 0.4 1.8 0 1-0.4 1.8-0.3 0.9-1 1.6-0.7 0.6-1.6 1-0.8 0.4-1.8 0.4zm0-9q-0.8 0-1.6 0.3-0.8 0.3-1.4 0.9-0.6 0.6-0.9 1.4-0.3 0.8-0.3 1.6 0 0.8 0.3 1.6 0.3 0.8 0.9 1.4 0.6 0.6 1.4 0.9 0.8 0.3 1.6 0.3 0.9 0 1.6-0.3 0.8-0.3 1.4-0.9 0.6-0.6 0.9-1.4 0.3-0.8 0.3-1.6 0-0.8-0.3-1.6-0.3-0.8-0.9-1.4-0.6-0.6-1.4-0.9-0.7-0.3-1.6-0.3z"/>
								<g id="Layer" style="opacity: .7">
									<path id="Layer" class="s7" d="m34.5 15.6q0.2-0.4 0.5-0.7 0.3-0.3 0.7-0.5 0.4-0.2 0.8-0.2 0.5 0 0.8 0.2 0.4 0.2 0.8 0.5 0.3 0.3 0.4 0.7 0.2 0.4 0.2 0.8 0 0.4-0.2 0.8-0.1 0.4-0.4 0.7-0.4 0.3-0.8 0.5-0.3 0.2-0.8 0.2-0.4 0-0.8-0.2-0.4-0.2-0.7-0.5-0.3-0.3-0.5-0.7-0.2-0.4-0.2-0.8 0-0.4 0.2-0.8z"/>
								</g>
							</g>
						</g>
						<g id="Layer">
							<g id="Layer">
								<path id="Layer" class="s1" d="m7.3 29.9c0-11.7 7.3-17.1 17.9-17.1 10.5 0 17.9 5.4 17.9 17.1 0 11-10.8 12.7-17.9 12.7-7.2 0-17.9-1.7-17.9-12.7z"/>
							</g>
							<path id="Layer" fill-rule="evenodd" class="s2" d="m25.2 42.9c-4.8 0-8.8-0.8-11.8-2.3-4.2-2.1-6.4-5.7-6.4-10.7 0-11.1 6.6-17.4 18.2-17.4 11.5 0 18.1 6.3 18.1 17.4 0 5-2.1 8.6-6.4 10.7-3 1.5-6.9 2.3-11.7 2.3zm0-29.9c-11.2 0-17.7 6.2-17.7 16.9 0 4.7 2.1 8.2 6.2 10.2 2.9 1.5 6.8 2.3 11.5 2.3 4.7 0 8.5-0.8 11.5-2.3 4-2 6.1-5.5 6.1-10.2 0-10.7-6.4-16.9-17.6-16.9z"/>
						</g>
						<g id="Layer">
							<g id="Layer">
								<path id="Layer" class="s5" d="m26.5 12.5q0 0.3-0.2 0.5-0.1 0.2-0.3 0.3-0.1 0.2-0.4 0.3-0.2 0-0.4 0-0.3 0-0.5 0-0.2-0.1-0.4-0.3-0.2-0.1-0.3-0.3-0.1-0.2-0.2-0.5 0.1-0.2 0.2-0.4 0.1-0.2 0.3-0.4 0.2-0.1 0.4-0.2 0.2-0.1 0.5 0 0.2-0.1 0.4 0 0.3 0.1 0.4 0.2 0.2 0.2 0.3 0.4 0.2 0.2 0.2 0.4z"/>
								<path id="Layer" fill-rule="evenodd" class="s2" d="m25.2 13.9q-0.3 0-0.6-0.1-0.3-0.1-0.5-0.3-0.2-0.2-0.4-0.4-0.1-0.3-0.1-0.6 0-0.3 0.1-0.5 0.2-0.3 0.4-0.5 0.2-0.2 0.5-0.2 0.3-0.1 0.6-0.1 0.3 0 0.5 0.1 0.3 0 0.5 0.2 0.3 0.2 0.4 0.5 0.1 0.2 0.2 0.5-0.1 0.3-0.2 0.6-0.1 0.2-0.4 0.4-0.2 0.2-0.5 0.3-0.2 0.1-0.5 0.1zm0-2.2q-0.2 0-0.4 0.1-0.2 0-0.3 0.1-0.2 0.1-0.3 0.3-0.1 0.1-0.1 0.3 0 0.2 0.1 0.4 0.1 0.1 0.3 0.2 0.1 0.2 0.3 0.2 0.2 0 0.4 0 0.1 0 0.3 0 0.2 0 0.4-0.2 0.1-0.1 0.2-0.2 0.1-0.2 0.1-0.4 0-0.2-0.1-0.3-0.1-0.2-0.2-0.3-0.2-0.1-0.4-0.1-0.2-0.1-0.3-0.1z"/>
							</g>
							<g id="Layer">
								<g id="Layer">
									<path id="Layer" class="s8" d="m40.2 19.3c0 0-5.2 0.4-15 0.4-9.9 0-15-0.4-15-0.4 3.7-4.7 8.9-6.5 14.7-6.5q0.1 0 0.3 0 0.1 0 0.2 0c5.8 0 11 1.8 14.8 6.5z"/>
								</g>
								<g id="Layer">
									<g id="Layer">
										<path id="Layer" class="s1" d="m19.8 19.6c0 0 0.5-2.7 5.4-2.7 4.8 0 5.3 2.7 5.3 2.7"/>
									</g>
									<path id="Layer" class="s2" d="m30.5 19.8q0 0-0.1 0 0 0-0.1 0 0-0.1 0-0.1-0.1 0-0.1-0.1c0-0.1-0.5-2.5-5-2.5-4.6 0-5.1 2.4-5.1 2.5q0 0.1-0.1 0.1 0 0 0 0.1-0.1 0-0.1 0-0.1 0-0.1 0-0.1 0-0.1 0-0.1 0-0.1-0.1 0 0 0-0.1-0.1 0 0-0.1c0-0.1 0.6-2.9 5.6-2.9 5 0 5.5 2.8 5.6 2.9q0 0.1 0 0.1 0 0.1-0.1 0.1 0 0.1-0.1 0.1 0 0-0.1 0 0 0 0 0 0 0 0 0 0 0 0 0 0 0 0 0z"/>
								</g>
								<path id="Layer" fill-rule="evenodd" class="s2" d="m25.2 19.9c-9.8 0-15-0.3-15.1-0.4q0 0 0 0-0.1 0-0.1 0 0 0-0.1 0 0-0.1 0-0.1 0 0 0-0.1 0 0 0-0.1 0 0 0 0 0-0.1 0-0.1c3.5-4.3 8.6-6.5 15-6.6q0.3 0 0.5 0c6.5 0.1 11.5 2.3 15 6.6q0 0 0 0.1 0 0 0 0 0 0.1 0 0.1 0 0.1 0 0.1 0 0 0 0.1 0 0-0.1 0 0 0 0 0-0.1 0-0.1 0c-0.1 0.1-5.3 0.4-15 0.4zm-14.5-0.9c1.6 0.1 6.5 0.4 14.5 0.4 8 0 12.9-0.3 14.4-0.4-3.3-3.9-8.1-5.9-14.2-5.9q-0.2-0.1-0.5 0c-6.1 0-10.8 2-14.2 5.9z"/>
								<g id="Layer">
									<g id="Layer">
										<path id="Layer" class="s1" d="m29.9 18.9c0.8 0.5 1 1.6-0.7 1.8q-0.3 0-0.7 0-0.3 0-0.7-0.1-0.3-0.1-0.6-0.3-0.3-0.2-0.6-0.4c0 0 0.1 0.9-1.8 0.8q-0.4 0.1-0.9 0-0.4-0.1-0.8-0.4-0.4-0.2-0.7-0.6-0.3-0.3-0.4-0.8"/>
									</g>
									<path id="Layer" class="s2" d="m24.9 21h-0.1q-0.5 0.1-1-0.1-0.4-0.1-0.9-0.4-0.4-0.2-0.7-0.6-0.3-0.4-0.5-0.9 0 0 0-0.1 0 0 0-0.1 0.1 0 0.1-0.1 0 0 0.1 0 0 0 0.1 0 0.1 0 0.1 0 0.1 0 0.1 0.1 0 0 0 0.1 0.2 0.3 0.4 0.7 0.3 0.3 0.7 0.5 0.3 0.2 0.7 0.3 0.4 0.1 0.8 0.1c0.9 0 1.3-0.2 1.4-0.4q0.1 0 0.1 0 0 0 0-0.1 0 0 0 0 0.1-0.1 0.1-0.1 0-0.1 0-0.1 0 0 0-0.1 0 0 0 0 0.1-0.1 0.1-0.1 0.1 0 0.1 0 0 0 0.1 0 0 0 0.1 0 0 0.1 0 0.1 0.3 0.2 0.5 0.4 0.3 0.1 0.6 0.2 0.3 0.1 0.7 0.1 0.3 0.1 0.6 0c0.6 0 0.9-0.2 1-0.5q0-0.1 0-0.2-0.1-0.1-0.1-0.2-0.1-0.1-0.2-0.2-0.1-0.1-0.2-0.1 0-0.1-0.1-0.1 0-0.1 0-0.1 0-0.1 0-0.1 0-0.1 0-0.1 0-0.1 0.1-0.1 0 0 0.1 0 0-0.1 0.1 0 0 0 0.1 0 0.2 0.1 0.3 0.2 0.2 0.2 0.3 0.4 0.1 0.1 0.1 0.3 0 0.2 0 0.4c0 0.3-0.3 0.9-1.5 1q-0.3 0-0.6 0-0.3 0-0.7-0.1-0.3-0.1-0.6-0.2-0.3-0.2-0.5-0.4-0.1 0.1-0.1 0.1 0 0 0 0 0 0 0 0.1-0.1 0-0.1 0-0.1 0.1-0.3 0.2-0.2 0.2-0.5 0.2-0.2 0.1-0.4 0.1-0.2 0-0.5 0z"/>
									<g id="Layer">
										<path id="Layer" class="s1" d="m26.7 20q-0.1-0.1-0.2-0.2 0-0.1-0.1-0.2 0-0.1-0.1-0.1 0-0.1 0-0.2"/>
										<path id="Layer" class="s2" d="m26.7 20.2q-0.1 0-0.1 0 0 0-0.1 0 0 0 0 0 0-0.1-0.1-0.1 0-0.1-0.1-0.2-0.1 0-0.1-0.1-0.1-0.1-0.1-0.2-0.1-0.1-0.1-0.2 0-0.1 0-0.1 0-0.1 0-0.1 0.1-0.1 0.1-0.1 0-0.1 0.1-0.1 0 0 0.1 0 0.1 0 0.1 0 0 0.1 0.1 0.1 0 0.1 0 0.1 0.1 0.1 0.1 0.2 0 0 0.1 0.1 0 0.1 0.1 0.1 0 0.1 0.1 0.2 0 0 0 0.1 0 0 0 0.1 0 0 0 0.1 0 0-0.1 0.1 0 0 0 0 0 0-0.1 0 0 0 0 0 0 0 0 0z"/>
									</g>
								</g>
							</g>
						</g>
						<g id="Layer">
							<g id="Layer">
								<path id="Layer" class="s2" d="m21.7 28.2q0 0.3 0 0.5-0.1 0.3-0.3 0.4-0.1 0.2-0.3 0.3-0.3 0.2-0.5 0.2-0.2 0-0.5-0.2-0.2-0.1-0.3-0.3-0.2-0.1-0.3-0.4 0-0.2 0-0.5 0-0.2 0-0.4 0.1-0.3 0.3-0.5 0.1-0.2 0.3-0.3 0.3-0.1 0.5-0.1 0.2 0 0.5 0.1 0.2 0.1 0.3 0.3 0.2 0.2 0.3 0.5 0 0.2 0 0.4z"/>
								<g id="Layer">
									<path id="Layer" class="s2" d="m28.7 27.8q0-0.3 0.2-0.5 0.1-0.2 0.4-0.3 0.2-0.1 0.4-0.1 0.3 0 0.5 0.1 0.2 0.1 0.4 0.3 0.1 0.2 0.2 0.5 0.1 0.2 0.1 0.4 0 0.3-0.1 0.5-0.1 0.3-0.2 0.4-0.2 0.2-0.4 0.3-0.2 0.2-0.5 0.2-0.2 0-0.4-0.2-0.3-0.1-0.4-0.3-0.2-0.1-0.2-0.4-0.1-0.2-0.1-0.5 0-0.2 0.1-0.4z"/>
								</g>
							</g>
							<g id="Layer" style="opacity: .7">
								<path id="Layer" class="s7" d="m28.3 30q0 0.6-0.3 1.1-0.3 0.5-0.7 0.9-0.5 0.3-1 0.5-0.6 0.2-1.1 0.1-0.6 0.1-1.2-0.1-0.5-0.2-1-0.5-0.4-0.4-0.7-0.9-0.3-0.5-0.3-1.1 0-0.6 0.3-1.1 0.3-0.5 0.7-0.9 0.5-0.3 1-0.5 0.6-0.2 1.2-0.1 0.5-0.1 1.1 0.1 0.5 0.2 1 0.5 0.4 0.4 0.7 0.9 0.3 0.5 0.3 1.1z"/>
							</g>
							<g id="Layer">
								<g id="Layer">
									<path id="Layer" class="s2" d="m25.2 31.4q-0.1 0-0.2-0.1-0.1 0-0.1 0-0.1 0-0.2 0-0.1 0-0.1 0-0.1 0-0.1 0-0.1-0.1-0.1-0.1 0-0.1-0.1-0.1 0-0.1 0-0.1 0.1-0.1 0.1-0.1 0-0.1 0.1-0.1 0 0 0.1 0 0 0 0.1 0c0 0 1.2 0.2 1.6-0.4q0 0 0.1-0.1 0 0 0.1 0 0 0 0.1 0 0 0 0.1 0.1 0 0 0.1 0 0 0.1 0 0.1 0 0.1 0 0.1 0 0.1-0.1 0.1-0.1 0.2-0.3 0.3-0.2 0.1-0.4 0.2-0.2 0.1-0.4 0.1-0.2 0.1-0.4 0.1z"/>
								</g>
								<path id="Layer" class="s2" d="m26 29.2q0 0.2-0.1 0.3-0.1 0.2-0.3 0.3-0.1 0.2-0.3 0.2-0.2 0.1-0.4 0-0.2 0.1-0.4 0-0.2 0-0.3-0.2-0.2-0.1-0.3-0.3-0.1-0.1-0.1-0.3 0-0.2 0.1-0.4 0.1-0.2 0.3-0.3 0.1-0.1 0.3-0.2 0.2 0 0.4 0 0.2 0 0.4 0 0.2 0.1 0.3 0.2 0.2 0.1 0.3 0.3 0.1 0.2 0.1 0.4z"/>
							</g>
							<g id="Layer">
								<path id="Layer" class="s2" d="m22.7 25.6q0 0-0.1 0 0 0 0 0 0 0-0.1 0 0 0 0 0l-0.3-0.3q-0.1 0-0.1-0.1 0 0 0-0.1 0 0 0-0.1 0 0 0.1-0.1 0 0 0 0 0.1-0.1 0.1-0.1 0.1 0 0.1 0 0.1 0.1 0.1 0.1l0.4 0.3q0 0 0 0 0 0.1 0.1 0.1 0 0.1-0.1 0.1 0 0.1 0 0.1 0 0.1-0.1 0.1 0 0 0 0 0 0-0.1 0 0 0 0 0z"/>
								<g id="Layer">
									<path id="Layer" class="s2" d="m27.6 25.6q0 0 0 0 0 0-0.1 0 0 0 0 0 0 0-0.1-0.1 0 0 0-0.1 0 0 0-0.1 0 0 0-0.1 0 0 0.1 0l0.3-0.3q0 0 0.1-0.1 0 0 0.1 0 0 0 0.1 0.1 0 0 0.1 0 0 0.1 0 0.1 0 0.1 0 0.1 0 0.1 0 0.1 0 0.1-0.1 0.1l-0.3 0.3q0 0 0 0 0 0-0.1 0 0 0 0 0 0 0-0.1 0z"/>
								</g>
							</g>
						</g>
					</g>
				</g>
			</g>
		</g>
	</g>
</svg>