<svg width="33" height="26" viewBox="0 0 33 26" fill="none" xmlns="http://www.w3.org/2000/svg">
<path d="M0.457031 1.94727H32.544V19.4114C32.544 20.8432 31.9753 22.2164 30.9628 23.2289C29.9503 24.2413 28.5771 24.8101 27.1453 24.8101H5.85579C4.42395 24.8101 3.05076 24.2413 2.03829 23.2289C1.02583 22.2164 0.457031 20.8432 0.457031 19.4114V1.94727Z" fill="#FDF0E2"/>
<path d="M1 22.0362C1.40154 22.9758 2.10605 23.754 3.00125 24.2468L10.3234 17.1998C10.3432 17.1801 10.3554 17.1538 10.3575 17.1259C10.3597 17.098 10.3518 17.0702 10.3352 17.0476C10.3186 17.0251 10.2944 17.0092 10.2671 17.003C10.2398 16.9967 10.2112 17.0005 10.1864 17.0135L1 22.0362Z" fill="#D9D0C6" fill-opacity="0.7"/>
<path d="M17.1373 18.3583L31.3013 3.34948C32.2076 2.6544 32.0317 0.458984 31.2112 0.458984H1.78769C0.964788 0.458984 0.455953 2.68422 1.74326 3.69276L15.864 18.3613C16.0353 18.5259 16.2638 18.6175 16.5013 18.617C16.7388 18.6164 16.9668 18.5237 17.1373 18.3583Z" fill="#D9D0C6"/>
<path d="M17.4106 13.9442L30.7017 1.7492C31.2142 1.27871 30.8624 0.457031 30.1479 0.457031H3.56612C2.85217 0.457031 2.49976 1.27871 3.01286 1.7492L16.3034 13.9442C16.4554 14.0809 16.6526 14.1565 16.857 14.1565C17.0614 14.1565 17.2586 14.0809 17.4106 13.9442Z" fill="#FDF0E2"/>
<path d="M32 21.8647C31.614 22.7724 30.9364 23.5242 30.0753 24L23.0332 17.193C23.0141 17.1739 23.0024 17.1486 23.0003 17.1216C22.9983 17.0946 23.0059 17.0678 23.0218 17.046C23.0378 17.0242 23.061 17.0089 23.0873 17.0029C23.1136 16.9968 23.1411 17.0004 23.1649 17.0131L32 21.8647Z" fill="#D9D0C6" fill-opacity="0.7"/>
<path d="M26.432 25.2678H6.56859C4.82689 25.2665 3.15689 24.5741 1.92532 23.3425C0.69375 22.1109 0.00128967 20.4409 0 18.6992L0 2.65571C0 2.53464 0.0480944 2.41853 0.133703 2.33292C0.219312 2.24731 0.335422 2.19922 0.45649 2.19922C0.577559 2.19922 0.693669 2.24731 0.779278 2.33292C0.864887 2.41853 0.912981 2.53464 0.912981 2.65571V18.6992C0.91427 20.1988 1.51054 21.6366 2.5709 22.6969C3.63125 23.7573 5.06903 24.3535 6.56859 24.3548H26.432C27.9315 24.3534 29.3691 23.757 30.4293 22.6967C31.4895 21.6364 32.0857 20.1987 32.087 18.6992V2.65571C32.087 2.53464 32.1351 2.41853 32.2207 2.33292C32.3063 2.24731 32.4224 2.19922 32.5435 2.19922C32.6646 2.19922 32.7807 2.24731 32.8663 2.33292C32.9519 2.41853 33 2.53464 33 2.65571V18.6992C32.9987 20.4408 32.3063 22.1107 31.0749 23.3423C29.8435 24.5738 28.1736 25.2664 26.432 25.2678Z" fill="#252525"/>
<path d="M16.5017 14.8282C16.1788 14.8295 15.8669 14.7103 15.6271 14.494L1.99752 2.10672C1.81585 1.94788 1.68773 1.73675 1.63075 1.50226C1.57376 1.26777 1.59068 1.02139 1.6792 0.796893C1.77354 0.558607 1.93824 0.354718 2.15136 0.212383C2.36448 0.0700481 2.61591 -0.00397788 2.87216 0.000164849H30.1301C30.3864 -0.00397788 30.6378 0.0700481 30.8509 0.212383C31.064 0.354718 31.2287 0.558607 31.3231 0.796893C31.4116 1.02139 31.4285 1.26777 31.3715 1.50226C31.3145 1.73675 31.1864 1.94788 31.0048 2.10672L17.3764 14.494C17.1365 14.7103 16.8247 14.8295 16.5017 14.8282ZM2.87216 0.913146C2.80028 0.908972 2.72888 0.927227 2.66782 0.965388C2.60676 1.00355 2.55906 1.05973 2.53131 1.12617C2.51009 1.17878 2.50644 1.23684 2.52092 1.29169C2.5354 1.34654 2.56723 1.39523 2.61166 1.4305L16.2412 13.8166C16.3138 13.8788 16.4062 13.9129 16.5017 13.9129C16.5973 13.9129 16.6897 13.8788 16.7623 13.8166L30.3918 1.43111C30.4362 1.39579 30.468 1.34713 30.4826 1.29233C30.4972 1.23752 30.4938 1.17948 30.4728 1.12678C30.4448 1.06008 30.3968 1.00371 30.3354 0.965442C30.2741 0.927175 30.2023 0.908903 30.1301 0.913146H2.87216Z" fill="#252525"/>
</svg>

