<svg width="41" height="36" viewBox="0 0 41 36" fill="none" xmlns="http://www.w3.org/2000/svg">
<path d="M16.1079 20.4985L13.7188 18.1094L10.2619 21.5662L12.6511 23.9554L16.1079 20.4985Z" fill="#75A1AB"/>
<path d="M12.6524 24.5077L9.71094 21.5663L13.7201 17.5566L16.662 20.4981L12.6524 24.5077ZM10.8154 21.5663L12.6524 23.4033L15.5567 20.499L13.7197 18.662L10.8154 21.5663Z" fill="#252525"/>
<path d="M9.51562 20.9102L13.3092 24.7038L5.69127 32.3218C5.44218 32.5708 5.14646 32.7684 4.82101 32.9032C4.49555 33.038 4.14673 33.1074 3.79446 33.1074C3.44219 33.1074 3.09337 33.038 2.76792 32.9032C2.44246 32.7684 2.14674 32.5708 1.89765 32.3217C1.39459 31.8187 1.11197 31.1364 1.11197 30.4249C1.11197 29.7135 1.39459 29.0312 1.89765 28.5281L9.51562 20.9102Z" fill="#C4E7EF"/>
<path d="M3.7947 33.4981C3.39114 33.4988 2.99141 33.4198 2.61849 33.2655C2.24557 33.1113 1.9068 32.8849 1.62164 32.5993C1.04598 32.0226 0.722656 31.2411 0.722656 30.4262C0.722656 29.6114 1.04598 28.8299 1.62164 28.2532L9.51544 20.3594L13.8616 24.7055L5.96776 32.5993C5.68257 32.8848 5.3438 33.1112 4.97088 33.2654C4.59797 33.4197 4.19826 33.4987 3.7947 33.4981ZM2.17409 32.0468C2.60424 32.476 3.18707 32.717 3.7947 32.717C4.40234 32.717 4.98516 32.476 5.41531 32.0468L12.7567 24.7055L9.51544 21.4643L2.17409 28.8056C1.74502 29.2358 1.50407 29.8186 1.50407 30.4262C1.50407 31.0338 1.74502 31.6166 2.17409 32.0468Z" fill="#252525"/>
<path d="M20.7759 24.4503C27.5277 24.4503 33.001 18.9769 33.001 12.2251C33.001 5.47338 27.5277 0 20.7759 0C14.0242 0 8.55078 5.47338 8.55078 12.2251C8.55078 18.9769 14.0242 24.4503 20.7759 24.4503Z" fill="#C4E7EF"/>
<path d="M20.7759 0.781405C23.416 0.782948 25.9745 1.69706 28.0178 3.36888C30.0612 5.04071 31.4638 7.36747 31.9881 9.955C32.5124 12.5425 32.1262 15.2318 30.8948 17.5672C29.6634 19.9025 27.6626 21.7405 25.2314 22.7696C23.8466 23.3546 22.3602 23.6612 20.857 23.6717C19.3538 23.6823 17.8632 23.3966 16.4703 22.8311C15.0775 22.2656 13.8097 21.4313 12.7393 20.3759C11.6689 19.3204 10.8169 18.0644 10.2319 16.6797C9.0504 13.883 9.02827 10.7316 10.1704 7.91867C11.3124 5.10572 13.5252 2.86168 16.3218 1.6802C17.7309 1.08401 19.2459 0.778315 20.7759 0.781405ZM20.7759 0C14.0242 0 8.55078 5.47342 8.55078 12.2251C8.55078 18.9768 14.0242 24.4498 20.7759 24.4498C27.5276 24.4498 33.0006 18.9768 33.0006 12.2251C33.0006 5.47342 27.5276 0 20.7759 0Z" fill="#252525"/>
<path d="M20.7765 21.6449C26.0077 21.6449 30.2484 17.4042 30.2484 12.173C30.2484 6.94186 26.0077 2.70117 20.7765 2.70117C15.5454 2.70117 11.3047 6.94186 11.3047 12.173C11.3047 17.4042 15.5454 21.6449 20.7765 21.6449Z" fill="white"/>
<path d="M20.7765 3.53531C22.9228 3.53857 24.9914 4.33887 26.5811 5.78097C28.1707 7.22307 29.1681 9.20418 29.3798 11.34C29.5915 13.4759 29.0023 15.6142 27.7266 17.3403C26.451 19.0663 24.5797 20.2571 22.4757 20.6815C20.3718 21.106 18.1852 20.7339 16.3401 19.6375C14.495 18.541 13.1229 16.7984 12.4899 14.7475C11.8569 12.6967 12.0081 10.4839 12.9143 8.53822C13.8205 6.59259 15.417 5.05286 17.3942 4.2177C18.4643 3.76518 19.6147 3.53309 20.7765 3.53531ZM20.7765 2.75391C15.5455 2.75391 11.3047 6.99473 11.3047 12.2258C11.3047 17.4568 15.5455 21.6971 20.7765 21.6971C26.0076 21.6971 30.2502 17.4568 30.2502 12.2258C30.2502 6.99473 26.0076 2.75391 20.7765 2.75391Z" fill="#252525"/>
<path d="M11.947 23.8906L4.79873 31.1961C4.43259 31.5623 3.95964 31.8027 3.44807 31.8827C2.9365 31.9628 2.41273 31.8783 1.95225 31.6415C1.94385 31.639 1.93489 31.639 1.92649 31.6415C1.91809 31.644 1.91061 31.6489 1.90498 31.6556C1.89935 31.6624 1.89582 31.6706 1.89482 31.6793C1.89383 31.688 1.89541 31.6969 1.89938 31.7047C1.97513 31.8094 2.05902 31.908 2.15029 31.9995C2.6088 32.4578 3.23057 32.7153 3.87888 32.7153C4.52719 32.7153 5.14896 32.4578 5.60747 31.9995L12.7553 24.694" fill="#75A1AB"/>
<g opacity="0.6">
<path opacity="0.6" d="M20.4653 23.3285C19.0377 23.3256 17.6277 23.012 16.3334 22.4096C15.0567 21.8187 13.9034 20.9913 12.9345 19.9713C10.9245 17.8748 9.77344 15.105 9.77344 12.3772C9.77344 9.64948 10.9671 6.86259 13.0487 4.71552C15.1559 2.54336 17.941 1.29688 20.688 1.29688C20.7771 1.29688 20.8626 1.33228 20.9256 1.3953C20.9886 1.45832 21.0241 1.54379 21.0241 1.63291C21.0241 1.72204 20.9886 1.80751 20.9256 1.87053C20.8626 1.93355 20.7771 1.96895 20.688 1.96895C15.3266 1.96895 10.4455 6.9298 10.4455 12.3772C10.4455 17.8529 15.1286 22.6565 20.4671 22.6565C20.5562 22.6565 20.6417 22.6919 20.7047 22.7549C20.7678 22.8179 20.8032 22.9034 20.8032 22.9925C20.8032 23.0816 20.7678 23.1671 20.7047 23.2301C20.6417 23.2931 20.5562 23.3285 20.4671 23.3285H20.4653Z" fill="white"/>
</g>
<path d="M14.1958 16.9525C14.9365 17.9714 15.9038 18.8043 17.0213 19.3856C18.1389 19.9669 19.3762 20.2808 20.6357 20.3023C21.8952 20.3239 23.1425 20.0526 24.2793 19.5099C25.416 18.9672 26.4112 18.1679 27.1864 17.175C27.9616 16.1821 28.4956 15.0227 28.7462 13.7882C28.9969 12.5537 28.9574 11.2778 28.6309 10.0612C28.3044 8.84455 27.6997 7.72038 26.8647 6.77728C26.0296 5.83418 24.9868 5.09792 23.8187 4.62655L16.519 11.9262C16.3624 12.0829 16.1499 12.171 15.9284 12.171C15.7068 12.171 15.4944 12.0831 15.3377 11.9265C15.181 11.7698 15.093 11.5574 15.0929 11.3359C15.0929 11.1143 15.1808 10.9018 15.3375 10.7452L21.9601 4.12159C20.8041 3.95174 19.6251 4.03284 18.5033 4.35939C17.3814 4.68594 16.343 5.25027 15.4588 6.014C14.5745 6.77773 13.8651 7.72295 13.3788 8.78536C12.8925 9.84777 12.6408 11.0025 12.6406 12.1709C12.6387 13.5522 12.9902 14.9111 13.6617 16.1182L18.0186 11.7614C18.0635 11.7165 18.1168 11.6808 18.1755 11.6565C18.2341 11.6323 18.297 11.6197 18.3605 11.6197C18.424 11.6197 18.4868 11.6323 18.5455 11.6565C18.6042 11.6808 18.6575 11.7165 18.7023 11.7614C18.7472 11.8062 18.7829 11.8595 18.8071 11.9182C18.8314 11.9769 18.844 12.0397 18.844 12.1032C18.844 12.1667 18.8314 12.2296 18.8071 12.2882C18.7829 12.3469 18.7472 12.4002 18.7023 12.4451L14.1958 16.9525Z" fill="#D3E5E5"/>
<g filter="url(#filter0_d)">
<path d="M32 35C36.4183 35 40 31.4183 40 27C40 22.5817 36.4183 19 32 19C27.5817 19 24 22.5817 24 27C24 31.4183 27.5817 35 32 35Z" fill="#E98670"/>
</g>
<path d="M31.5688 29.4686C31.3817 29.4686 31.2304 29.3078 31.2304 29.1101V28.9309C31.2304 28.5211 31.3049 28.1882 31.4539 27.9321C31.6029 27.676 31.8577 27.4584 32.2184 27.2792L32.4839 27.1514C32.8256 27.0038 33.1338 26.7955 33.3913 26.538C33.6086 26.3074 33.7172 25.9874 33.7172 25.578C33.7302 25.3203 33.66 25.065 33.5156 24.8456C33.3713 24.6263 33.1596 24.4532 32.9086 24.3492C32.6397 24.2341 32.3469 24.1772 32.0516 24.1825C31.7471 24.1791 31.4455 24.2375 31.1673 24.3538C30.9005 24.4667 30.6756 24.6519 30.5212 24.8855C30.3601 25.124 30.2795 25.4227 30.2795 25.7816C30.2795 25.9792 30.1288 26.14 29.9418 26.14H29.3384C29.1514 26.14 29 25.9792 29 25.7816C29 25.2013 29.135 24.7019 29.405 24.2833C29.6646 23.8738 30.0437 23.5429 30.4974 23.33C30.9814 23.1059 31.515 22.993 32.0544 23.0005C32.5828 22.9911 33.1054 23.1057 33.5749 23.3339C34.0034 23.5431 34.3641 23.857 34.619 24.2425C34.8775 24.6434 35.0095 25.1052 34.9995 25.574C34.9995 26.0686 34.913 26.4804 34.7402 26.8094C34.5827 27.1194 34.3539 27.3926 34.0703 27.6093C33.8005 27.8126 33.5091 27.9893 33.2007 28.1363L32.9352 28.2642C32.8073 28.3182 32.7 28.4076 32.6276 28.5205C32.5673 28.6226 32.5372 28.7768 32.5372 28.9817V29.1075C32.5372 29.3052 32.3858 29.4659 32.1994 29.4659L31.5688 29.4686ZM31.9065 31.9992C31.7765 32.0016 31.6472 31.9791 31.5267 31.933C31.4062 31.887 31.2969 31.8184 31.2054 31.7313C31.114 31.6443 31.0423 31.5407 30.9948 31.4268C30.9473 31.313 30.9249 31.1912 30.929 31.0689C30.9236 30.9459 30.9457 30.8232 30.994 30.7088C31.0423 30.5944 31.1157 30.4908 31.2093 30.4048C31.3011 30.321 31.4097 30.2552 31.5288 30.2113C31.6479 30.1674 31.7751 30.1463 31.903 30.1492C32.0339 30.1445 32.1644 30.1648 32.2867 30.2087C32.4091 30.2526 32.5207 30.3193 32.615 30.4048C32.7081 30.4912 32.7811 30.5948 32.8293 30.7092C32.8776 30.8235 32.9 30.946 32.8952 31.0689C32.9006 31.1925 32.8786 31.3158 32.8307 31.431C32.7829 31.5461 32.7101 31.6507 32.6171 31.7382C32.524 31.8256 32.4127 31.8939 32.2902 31.9389C32.1677 31.9838 32.0366 32.0043 31.9051 31.9992H31.9065Z" fill="white"/>
<defs>
<filter id="filter0_d" x="23" y="18" width="18" height="18" filterUnits="userSpaceOnUse" color-interpolation-filters="sRGB">
<feFlood flood-opacity="0" result="BackgroundImageFix"/>
<feColorMatrix in="SourceAlpha" type="matrix" values="0 0 0 0 0 0 0 0 0 0 0 0 0 0 0 0 0 0 127 0" result="hardAlpha"/>
<feOffset/>
<feGaussianBlur stdDeviation="0.5"/>
<feComposite in2="hardAlpha" operator="out"/>
<feColorMatrix type="matrix" values="0 0 0 0 0 0 0 0 0 0 0 0 0 0 0 0 0 0 0.25 0"/>
<feBlend mode="normal" in2="BackgroundImageFix" result="effect1_dropShadow"/>
<feBlend mode="normal" in="SourceGraphic" in2="effect1_dropShadow" result="shape"/>
</filter>
</defs>
</svg>

